<svg width="182" height="105" viewBox="0 0 182 105" fill="none" xmlns="http://www.w3.org/2000/svg">
<g opacity="0.2">
<rect width="123.662" height="76.2888" rx="38.1444" transform="matrix(-1 0 0 1 135.228 0)" fill="#3D3969"/>
<path d="M0.256496 75.2123C11.8116 76.99 23.2186 70.6272 26.9221 66.5533C23.1048 57.4504 46.6723 35.3411 31.1173 35.3402C27.5206 35.3402 25.5742 23.8033 12.4928 30.8768C11.3672 32.6075 11.5639 35.6836 11.3672 47.4347C10.9766 70.7639 -1.96564 73.8717 0.256496 75.2123Z" fill="#3D3969"/>
</g>
<rect x="46.127" y="28.7114" width="123.662" height="76.2888" rx="38.1444" fill="#468CF7"/>
<path d="M181.706 103.922C170.18 105.878 158.676 99.6914 154.91 95.6751C158.587 86.5144 134.681 64.7709 150.234 64.5304C153.831 64.4749 155.599 52.9094 168.788 59.7805C169.94 61.4936 169.791 64.5724 170.169 76.3191C170.919 99.6394 183.907 102.547 181.706 103.922Z" fill="#468CF7"/>
<circle cx="80.3301" cy="66.0384" r="10.4085" fill="#D9D9D9"/>
<circle cx="108.53" cy="66.0384" r="10.4085" fill="#D9D9D9"/>
<circle cx="136.73" cy="66.0384" r="10.4085" fill="#D9D9D9"/>
</svg>
