<svg width="112" height="24" viewBox="0 0 112 24" fill="none" xmlns="http://www.w3.org/2000/svg">
<mask id="mask0_518_641" style="mask-type:alpha" maskUnits="userSpaceOnUse" x="0" y="0" width="16" height="24">
<path d="M0 0.0310059H15.881V23.45H0V0.0310059Z" fill="white"/>
</mask>
<g mask="url(#mask0_518_641)">
<path fill-rule="evenodd" clip-rule="evenodd" d="M7.93333 18.8546C5.94596 18.8546 4.32942 17.1411 4.32942 15.0348C4.32942 12.9285 5.94596 11.215 7.93396 11.215C9.92133 11.215 11.5379 12.9285 11.5379 15.0348C11.5379 17.1411 9.92133 18.8546 7.93396 18.8546H7.93333ZM7.9408 6.62027C6.75049 6.62027 5.60498 6.89311 4.53724 7.43059L4.33627 7.53164V2.32806C4.33627 1.06111 3.36373 0.0310059 2.16844 0.0310059C0.972533 0.0310059 0 1.06111 0 2.32806V15.043C0.00373333 19.6788 3.56658 23.4493 7.9408 23.4493C12.3194 23.4493 15.881 19.675 15.881 15.0348C15.881 10.3952 12.3194 6.62027 7.94142 6.62027" fill="white"/>
</g>
<mask id="mask1_518_641" style="mask-type:alpha" maskUnits="userSpaceOnUse" x="46" y="0" width="16" height="24">
<path d="M46.0547 0.0310059H61.9357V23.45H46.0547V0.0310059Z" fill="white"/>
</mask>
<g mask="url(#mask1_518_641)">
<path fill-rule="evenodd" clip-rule="evenodd" d="M53.988 18.8546C52.0006 18.8546 50.3841 17.1411 50.3841 15.0348C50.3841 12.9285 52.0006 11.215 53.988 11.215C55.976 11.215 57.5919 12.9285 57.5919 15.0348C57.5919 17.1411 55.976 18.8546 53.988 18.8546ZM53.9955 6.62027C52.8046 6.62027 51.6597 6.89311 50.5919 7.43059L50.3903 7.53164V2.32806C50.3903 1.06111 49.4178 0.0310059 48.2231 0.0310059C47.0272 0.0310059 46.0547 1.06111 46.0547 2.32806V15.043C46.0584 19.6788 49.6206 23.4493 53.9955 23.4493C58.3734 23.4493 61.9357 19.675 61.9357 15.0348C61.9357 10.3952 58.3734 6.62027 53.9961 6.62027" fill="white"/>
</g>
<path fill-rule="evenodd" clip-rule="evenodd" d="M41.7511 6.62036C40.5565 6.62036 39.5833 7.6511 39.5833 8.91805V15.4069H39.5895C39.5895 17.4178 38.1348 19.0536 36.3465 19.0536C34.5582 19.0536 33.1035 17.4178 33.1035 15.4069H33.1097V8.91805C33.1097 7.6511 32.1365 6.62036 30.9419 6.62036C29.746 6.62036 28.7734 7.6511 28.7734 8.91805V15.4145C28.7772 19.8368 32.1739 23.4355 36.3459 23.4393C40.5191 23.4349 43.9158 19.8368 43.9196 15.4145V8.91805C43.9196 7.6511 42.947 6.62036 41.7511 6.62036ZM36.5493 23.4393H36.5039H36.5493ZM88.3537 6.62036H88.3998H88.3537ZM88.3612 6.62099C84.1885 6.62478 80.7912 10.2229 80.7881 14.6458V21.1416C80.7881 22.4086 81.7606 23.4393 82.9566 23.4393C84.1512 23.4393 85.1238 22.4086 85.1238 21.1416V14.6534H85.1182C85.1182 12.6425 86.5729 11.0067 88.3612 11.0067C90.1494 11.0067 91.6042 12.6425 91.6042 14.6534H91.598V21.1416C91.598 22.4086 92.5705 23.4393 93.7658 23.4393C94.9617 23.4393 95.9342 22.4086 95.9342 21.1416V14.6465C95.9305 10.2235 92.5338 6.62541 88.3612 6.62162" fill="white"/>
<mask id="mask2_518_641" style="mask-type:alpha" maskUnits="userSpaceOnUse" x="63" y="6" width="16" height="18">
<path d="M63.0781 6.62085H78.9597V23.4815H63.0781V6.62085Z" fill="white"/>
</mask>
<g mask="url(#mask2_518_641)">
<path fill-rule="evenodd" clip-rule="evenodd" d="M70.966 18.8558C68.9787 18.8558 67.3621 17.1417 67.3621 15.0354C67.3621 12.9291 68.9787 11.2156 70.966 11.2156C72.9534 11.2156 74.5699 12.9291 74.5699 15.0354C74.5699 17.1417 72.9534 18.8552 70.966 18.8552V18.8558ZM71.0177 6.62085C66.6397 6.62085 63.0781 10.3952 63.0781 15.0347C63.0781 19.4798 66.3467 23.1303 70.4701 23.4297C72.2229 23.5636 73.9888 22.6863 74.9756 20.9962L74.9787 21.3941C74.9831 21.9903 75.1679 22.4912 75.5282 22.8827C75.8928 23.28 76.3775 23.4809 76.9692 23.4809C77.5404 23.4809 78.0208 23.28 78.3947 22.8827C78.7693 22.4861 78.9591 21.9777 78.9591 21.372V15.0284C78.9554 10.392 75.3925 6.62085 71.0171 6.62085" fill="white"/>
</g>
<mask id="mask3_518_641" style="mask-type:alpha" maskUnits="userSpaceOnUse" x="97" y="0" width="15" height="24">
<path d="M97.9062 0.0373535H111.972V23.4456H97.9062V0.0373535Z" fill="white"/>
</mask>
<g mask="url(#mask3_518_641)">
<path fill-rule="evenodd" clip-rule="evenodd" d="M111.43 19.9119L106.661 14.6432L111.091 10.1376C111.868 9.34809 111.894 8.0363 111.148 7.21335C110.975 7.01863 110.765 6.8619 110.53 6.75279C110.295 6.64368 110.04 6.5845 109.782 6.57888C109.523 6.57327 109.267 6.62133 109.027 6.72012C108.788 6.81891 108.571 6.96634 108.389 7.15335L102.243 13.4035V2.33504C102.243 1.06809 101.271 0.0373535 100.075 0.0373535C98.8794 0.0373535 97.9062 1.06809 97.9062 2.33504V21.1485C97.9062 22.4148 98.8788 23.4456 100.075 23.4456C101.269 23.4456 102.243 22.4148 102.243 21.1485V15.7359L108.613 22.7748C108.787 22.9695 108.997 23.1263 109.232 23.2354C109.467 23.3446 109.721 23.4039 109.98 23.4096C110.238 23.4153 110.495 23.3674 110.734 23.2688C110.973 23.1702 111.19 23.0229 111.372 22.8361C112.149 22.0466 112.174 20.7348 111.43 19.9119Z" fill="white"/>
</g>
<path fill-rule="evenodd" clip-rule="evenodd" d="M26.4693 6.69931C24.5044 6.40752 22.6259 7.40415 21.6253 9.09741V8.91805C21.6253 7.6511 20.6528 6.62036 19.4575 6.62036C18.2616 6.62036 17.2891 7.6511 17.2891 8.91805V21.0254C17.2891 22.2924 18.2616 23.3225 19.4575 23.3225C20.6522 23.3225 21.6253 22.2924 21.6253 21.0254V14.3206C21.7249 12.41 23.1386 10.8898 24.8621 10.8898C25.1073 10.8898 25.3462 10.9208 25.5758 10.9783C26.6834 11.2858 27.8152 10.5835 28.1045 9.41005C28.1543 9.20794 28.1767 9.00394 28.173 8.80373C28.173 7.73826 27.4332 6.85594 26.4693 6.69931Z" fill="white"/>
</svg>
