<svg width="140" height="141" viewBox="0 0 140 141" fill="none" xmlns="http://www.w3.org/2000/svg">
<mask id="mask0_34_904" style="mask-type:alpha" maskUnits="userSpaceOnUse" x="0" y="0" width="140" height="141">
<rect x="0.361084" y="0.844238" width="138.888" height="139.795" rx="69.4438" fill="white"/>
</mask>
<g mask="url(#mask0_34_904)">
<rect x="0.361084" y="0.844238" width="138.888" height="138.888" rx="69.4438" fill="white" fill-opacity="0.1"/>
<path d="M45.915 66.8752C44.038 66.8752 42.4305 66.2063 41.0927 64.8685C39.7571 63.5329 39.0894 61.9266 39.0894 60.0495V46.3982C39.0894 44.5211 39.7571 42.9137 41.0927 41.5758C42.4305 40.2403 44.038 39.5725 45.915 39.5725H59.5664C61.4434 39.5725 63.0509 40.2403 64.3887 41.5758C65.7243 42.9137 66.3921 44.5211 66.3921 46.3982V60.0495C66.3921 61.9266 65.7243 63.5329 64.3887 64.8685C63.0509 66.2063 61.4434 66.8752 59.5664 66.8752H45.915ZM45.915 60.0495H59.5664V46.3982H45.915V60.0495ZM45.915 101.004C44.038 101.004 42.4305 100.336 41.0927 99.0003C39.7571 97.6624 39.0894 96.055 39.0894 94.1779V80.5266C39.0894 78.6495 39.7571 77.0421 41.0927 75.7042C42.4305 74.3687 44.038 73.7009 45.915 73.7009H59.5664C61.4434 73.7009 63.0509 74.3687 64.3887 75.7042C65.7243 77.0421 66.3921 78.6495 66.3921 80.5266V94.1779C66.3921 96.055 65.7243 97.6624 64.3887 99.0003C63.0509 100.336 61.4434 101.004 59.5664 101.004H45.915ZM45.915 94.1779H59.5664V80.5266H45.915V94.1779ZM80.0434 66.8752C78.1664 66.8752 76.5601 66.2063 75.2245 64.8685C73.8867 63.5329 73.2177 61.9266 73.2177 60.0495V46.3982C73.2177 44.5211 73.8867 42.9137 75.2245 41.5758C76.5601 40.2403 78.1664 39.5725 80.0434 39.5725H93.6948C95.5718 39.5725 97.1793 40.2403 98.5171 41.5758C99.8527 42.9137 100.52 44.5211 100.52 46.3982V60.0495C100.52 61.9266 99.8527 63.5329 98.5171 64.8685C97.1793 66.2063 95.5718 66.8752 93.6948 66.8752H80.0434ZM80.0434 60.0495H93.6948V46.3982H80.0434V60.0495ZM95.4012 101.004C94.9461 101.004 94.548 100.833 94.2067 100.492C93.8654 100.15 93.6948 99.7522 93.6948 99.2972V95.8843C93.6948 95.4293 93.8654 95.0311 94.2067 94.6899C94.548 94.3486 94.9461 94.1779 95.4012 94.1779H98.814C99.2691 94.1779 99.6672 94.3486 100.009 94.6899C100.35 95.0311 100.52 95.4293 100.52 95.8843V99.2972C100.52 99.7522 100.35 100.15 100.009 100.492C99.6672 100.833 99.2691 101.004 98.814 101.004H95.4012ZM74.9242 80.5266C74.4691 80.5266 74.0709 80.3559 73.7297 80.0146C73.3884 79.6734 73.2177 79.2752 73.2177 78.8202V75.4073C73.2177 74.9523 73.3884 74.5541 73.7297 74.2128C74.0709 73.8715 74.4691 73.7009 74.9242 73.7009H78.337C78.792 73.7009 79.1902 73.8715 79.5315 74.2128C79.8728 74.5541 80.0434 74.9523 80.0434 75.4073V78.8202C80.0434 79.2752 79.8728 79.6734 79.5315 80.0146C79.1902 80.3559 78.792 80.5266 78.337 80.5266H74.9242ZM81.7498 87.3523C81.2948 87.3523 80.8966 87.1816 80.5553 86.8403C80.2141 86.499 80.0434 86.1009 80.0434 85.6458V82.233C80.0434 81.7779 80.2141 81.3798 80.5553 81.0385C80.8966 80.6972 81.2948 80.5266 81.7498 80.5266H85.1627C85.6177 80.5266 86.0159 80.6972 86.3572 81.0385C86.6985 81.3798 86.8691 81.7779 86.8691 82.233V85.6458C86.8691 86.1009 86.6985 86.499 86.3572 86.8403C86.0159 87.1816 85.6177 87.3523 85.1627 87.3523H81.7498ZM74.9242 94.1779C74.4691 94.1779 74.0709 94.0073 73.7297 93.666C73.3884 93.3247 73.2177 92.9266 73.2177 92.4715V89.0587C73.2177 88.6036 73.3884 88.2055 73.7297 87.8642C74.0709 87.5229 74.4691 87.3523 74.9242 87.3523H78.337C78.792 87.3523 79.1902 87.5229 79.5315 87.8642C79.8728 88.2055 80.0434 88.6036 80.0434 89.0587V92.4715C80.0434 92.9266 79.8728 93.3247 79.5315 93.666C79.1902 94.0073 78.792 94.1779 78.337 94.1779H74.9242ZM81.7498 101.004C81.2948 101.004 80.8966 100.833 80.5553 100.492C80.2141 100.15 80.0434 99.7522 80.0434 99.2972V95.8843C80.0434 95.4293 80.2141 95.0311 80.5553 94.6899C80.8966 94.3486 81.2948 94.1779 81.7498 94.1779H85.1627C85.6177 94.1779 86.0159 94.3486 86.3572 94.6899C86.6985 95.0311 86.8691 95.4293 86.8691 95.8843V99.2972C86.8691 99.7522 86.6985 100.15 86.3572 100.492C86.0159 100.833 85.6177 101.004 85.1627 101.004H81.7498ZM88.5755 94.1779C88.1205 94.1779 87.7223 94.0073 87.381 93.666C87.0397 93.3247 86.8691 92.9266 86.8691 92.4715V89.0587C86.8691 88.6036 87.0397 88.2055 87.381 87.8642C87.7223 87.5229 88.1205 87.3523 88.5755 87.3523H91.9884C92.4434 87.3523 92.8416 87.5229 93.1828 87.8642C93.5241 88.2055 93.6948 88.6036 93.6948 89.0587V92.4715C93.6948 92.9266 93.5241 93.3247 93.1828 93.666C92.8416 94.0073 92.4434 94.1779 91.9884 94.1779H88.5755ZM88.5755 80.5266C88.1205 80.5266 87.7223 80.3559 87.381 80.0146C87.0397 79.6734 86.8691 79.2752 86.8691 78.8202V75.4073C86.8691 74.9523 87.0397 74.5541 87.381 74.2128C87.7223 73.8715 88.1205 73.7009 88.5755 73.7009H91.9884C92.4434 73.7009 92.8416 73.8715 93.1828 74.2128C93.5241 74.5541 93.6948 74.9523 93.6948 75.4073V78.8202C93.6948 79.2752 93.5241 79.6734 93.1828 80.0146C92.8416 80.3559 92.4434 80.5266 91.9884 80.5266H88.5755ZM95.4012 87.3523C94.9461 87.3523 94.548 87.1816 94.2067 86.8403C93.8654 86.499 93.6948 86.1009 93.6948 85.6458V82.233C93.6948 81.7779 93.8654 81.3798 94.2067 81.0385C94.548 80.6972 94.9461 80.5266 95.4012 80.5266H98.814C99.2691 80.5266 99.6672 80.6972 100.009 81.0385C100.35 81.3798 100.52 81.7779 100.52 82.233V85.6458C100.52 86.1009 100.35 86.499 100.009 86.8403C99.6672 87.1816 99.2691 87.3523 98.814 87.3523H95.4012Z" fill="white"/>
<g filter="url(#filter0_d_34_904)">
<line x1="0.000129326" y1="87.0922" x2="137" y2="87.1118" stroke="white" stroke-width="1.81553"/>
</g>
</g>
<defs>
<filter id="filter0_d_34_904" x="-9.07763" y="77.1069" width="155.155" height="19.9902" filterUnits="userSpaceOnUse" color-interpolation-filters="sRGB">
<feFlood flood-opacity="0" result="BackgroundImageFix"/>
<feColorMatrix in="SourceAlpha" type="matrix" values="0 0 0 0 0 0 0 0 0 0 0 0 0 0 0 0 0 0 127 0" result="hardAlpha"/>
<feOffset/>
<feGaussianBlur stdDeviation="4.53881"/>
<feComposite in2="hardAlpha" operator="out"/>
<feColorMatrix type="matrix" values="0 0 0 0 1 0 0 0 0 1 0 0 0 0 1 0 0 0 0.6 0"/>
<feBlend mode="normal" in2="BackgroundImageFix" result="effect1_dropShadow_34_904"/>
<feBlend mode="normal" in="SourceGraphic" in2="effect1_dropShadow_34_904" result="shape"/>
</filter>
</defs>
</svg>
